<?xml version="1.0" standalone="no"?>
<!DOCTYPE svg PUBLIC "-//W3C//DTD SVG 20010904//EN"
 "http://www.w3.org/TR/2001/REC-SVG-20010904/DTD/svg10.dtd">
<svg version="1.0" xmlns="http://www.w3.org/2000/svg"
 width="1394.000000pt" height="1575.000000pt" viewBox="0 0 1394.000000 1575.000000"
 preserveAspectRatio="xMidYMid meet">

<g transform="translate(0.000000,1575.000000) scale(0.100000,-0.100000)"
fill="#000000" stroke="none">
<path d="M7107 15688 c-3 -13 -9 -65 -13 -116 -3 -51 -10 -95 -15 -97 -4 -3
-24 24 -45 60 -29 53 -41 65 -58 63 -19 -3 -22 -12 -30 -97 l-8 -95 -45 52
c-36 42 -51 52 -75 52 l-31 0 6 -86 5 -85 -22 20 c-12 12 -32 21 -44 21 -20 0
-22 -5 -22 -59 0 -55 -2 -61 -27 -73 -36 -17 -51 -73 -52 -189 -1 -78 1 -87
23 -108 l24 -23 -49 -61 c-27 -34 -49 -71 -49 -84 0 -22 4 -23 68 -23 37 0 82
4 100 9 17 5 32 6 32 2 0 -4 -21 -27 -46 -51 -59 -58 -74 -88 -74 -149 0 -72
30 -104 120 -127 39 -10 70 -23 70 -29 0 -6 -13 -32 -30 -58 -16 -26 -30 -50
-30 -54 0 -6 -94 -178 -246 -448 -87 -156 -134 -257 -180 -388 l-34 -99 0
-199 c0 -177 2 -204 21 -254 30 -80 101 -168 284 -350 160 -161 386 -399 439
-465 55 -69 202 -191 275 -231 107 -57 226 -154 301 -244 154 -184 173 -201
257 -216 32 -6 61 -15 64 -21 9 -15 -26 -228 -66 -392 -55 -229 -95 -298 -199
-341 -33 -14 -53 -14 -159 -4 -77 8 -136 19 -159 31 -21 10 -44 18 -51 18 -8
0 -25 8 -38 19 -13 10 -35 22 -48 26 -58 18 -247 158 -371 275 -260 246 -307
285 -400 340 -19 11 -42 24 -50 29 -8 6 -28 16 -45 24 -52 23 -79 41 -103 67
-38 42 -182 263 -182 280 0 4 -9 15 -20 25 -11 10 -20 22 -20 26 0 10 -75 119
-136 198 -27 34 -74 95 -104 134 -31 40 -73 92 -95 117 -49 55 -269 274 -316
314 -58 49 -163 136 -184 151 -11 8 -37 27 -57 42 -20 16 -53 39 -73 53 -20
14 -49 35 -65 48 -15 12 -32 22 -38 22 -5 0 -26 14 -47 30 -21 17 -41 30 -46
30 -4 0 -29 15 -55 33 -50 35 -51 36 -133 86 -31 19 -62 41 -69 48 -7 7 -19
13 -26 13 -7 0 -21 9 -31 20 -10 11 -22 20 -27 20 -5 0 -24 11 -42 25 -18 14
-37 25 -43 25 -5 0 -19 8 -31 18 -11 9 -35 26 -53 37 -19 11 -48 29 -66 40
-17 11 -58 35 -90 54 -75 43 -137 83 -208 131 -12 8 -35 24 -51 35 -89 60
-174 138 -239 219 -79 97 -147 152 -244 197 -25 11 -59 28 -75 36 -47 25 -179
43 -327 43 -123 0 -139 2 -163 21 -14 11 -26 24 -26 28 0 7 -79 177 -170 366
-16 33 -49 104 -74 157 -42 93 -101 189 -120 197 -5 2 -17 12 -28 23 -27 27
-85 50 -107 43 -22 -7 -36 -98 -51 -335 -6 -85 -14 -175 -19 -200 -6 -25 -12
-62 -16 -82 -5 -35 -9 -39 -57 -53 -28 -8 -56 -19 -63 -25 -7 -5 -32 -13 -56
-16 l-44 -6 -144 139 c-80 76 -231 222 -335 325 -199 196 -229 216 -242 163
-12 -49 2 -327 19 -380 9 -27 23 -70 31 -95 24 -76 37 -113 69 -180 16 -36 39
-85 50 -110 11 -25 24 -52 29 -60 4 -8 13 -26 19 -40 6 -14 22 -48 36 -77 l26
-51 -26 -32 c-15 -17 -27 -36 -27 -41 0 -5 -7 -17 -16 -26 -9 -10 -34 -47 -56
-83 -55 -88 -106 -168 -135 -211 -12 -19 -23 -41 -23 -48 0 -7 -8 -25 -19 -39
-26 -37 -107 -209 -121 -257 -6 -22 -18 -54 -26 -72 -21 -46 -20 -303 2 -348
21 -45 14 -191 -12 -260 -23 -59 -23 -58 -160 -265 -21 -30 -47 -71 -59 -90
-12 -19 -40 -61 -61 -94 -21 -32 -42 -63 -46 -70 -21 -33 -138 -247 -167 -304
-18 -37 -38 -76 -44 -87 -34 -65 -116 -238 -146 -310 -65 -158 -81 -398 -37
-567 27 -104 91 -236 130 -273 6 -5 33 -36 60 -68 59 -70 149 -139 236 -181
64 -30 68 -31 210 -31 141 0 146 1 187 28 24 15 45 27 47 27 22 0 146 144 146
169 0 5 9 19 19 33 11 13 23 38 27 54 10 44 60 117 106 155 44 36 199 118 264
139 21 7 50 21 63 31 13 11 31 19 41 19 10 0 28 8 41 19 13 10 35 22 49 26 14
4 41 15 60 25 19 10 62 30 95 45 96 43 169 78 185 87 8 5 31 15 50 23 19 9 42
20 50 25 8 6 22 13 30 16 29 12 125 55 175 78 28 14 82 38 120 56 39 17 86 40
106 51 61 32 108 22 128 -28 6 -16 24 -50 40 -78 17 -27 35 -61 42 -75 7 -14
21 -36 30 -50 9 -14 20 -36 24 -50 4 -14 11 -27 15 -30 4 -3 28 -48 54 -100
26 -52 50 -102 55 -110 8 -14 64 -131 125 -261 14 -31 26 -60 26 -65 0 -5 14
-36 30 -69 16 -33 30 -67 30 -75 0 -8 9 -28 20 -45 11 -16 20 -37 20 -45 0 -8
7 -28 16 -45 14 -26 51 -129 110 -300 9 -27 25 -70 35 -95 10 -25 21 -61 25
-80 3 -19 13 -48 21 -64 24 -46 30 -520 9 -651 -9 -55 -24 -151 -32 -214 -8
-62 -21 -132 -29 -155 -8 -22 -15 -55 -15 -72 0 -18 -9 -61 -20 -97 -20 -63
-34 -148 -46 -268 -6 -53 18 -211 35 -234 4 -5 13 -37 21 -70 7 -33 21 -77 31
-97 11 -21 19 -45 19 -54 0 -9 11 -40 25 -68 13 -28 38 -85 56 -126 17 -41 37
-82 43 -90 7 -8 27 -44 45 -80 18 -36 47 -83 65 -105 17 -22 39 -51 48 -65 8
-14 58 -71 111 -126 142 -151 143 -156 167 -456 6 -76 15 -159 21 -185 6 -26
15 -77 20 -113 19 -129 103 -392 174 -545 12 -27 33 -75 45 -105 12 -30 33
-78 46 -106 13 -28 24 -57 24 -63 0 -7 7 -27 15 -44 18 -39 50 -146 74 -247
10 -42 23 -86 30 -98 6 -12 16 -61 21 -109 5 -49 15 -117 23 -153 11 -47 16
-177 21 -475 4 -225 11 -441 16 -480 6 -38 17 -122 25 -185 15 -120 23 -158
35 -175 4 -5 11 -35 15 -65 4 -30 14 -80 22 -110 12 -45 13 -125 9 -458 -3
-221 -7 -406 -10 -411 -3 -4 -10 -85 -16 -179 -6 -94 -19 -210 -29 -259 -11
-48 -22 -116 -26 -151 -4 -34 -11 -64 -15 -67 -5 -3 -14 -31 -20 -63 -7 -31
-21 -71 -31 -88 -10 -17 -19 -36 -19 -42 0 -20 -72 -126 -125 -182 -28 -30
-77 -86 -108 -125 -32 -38 -63 -77 -70 -85 -7 -8 -24 -33 -38 -55 -25 -38 -43
-66 -81 -124 -17 -25 -53 -88 -90 -153 -9 -16 -23 -37 -32 -47 -9 -10 -16 -21
-16 -26 0 -4 -22 -45 -50 -91 -27 -46 -50 -88 -50 -94 0 -5 -4 -10 -9 -10 -4
0 -20 -23 -34 -50 -15 -28 -23 -48 -18 -46 5 3 11 -2 14 -13 3 -13 27 -23 90
-39 81 -21 110 -22 468 -22 l382 0 55 28 c30 15 66 41 79 57 30 37 68 129 77
185 4 23 13 55 21 71 22 42 19 141 -5 189 -11 22 -20 44 -20 51 0 6 -7 26 -16
44 -11 24 -15 53 -12 102 8 117 53 209 162 328 42 46 92 104 111 129 l35 46
15 184 c11 136 15 364 17 863 1 373 4 818 8 988 4 171 10 594 14 940 4 347 11
704 16 795 25 420 32 497 50 555 10 33 21 77 25 97 3 21 10 40 16 44 12 7 49
-23 49 -40 0 -6 12 -33 25 -61 14 -27 25 -56 25 -64 0 -7 8 -28 19 -45 10 -17
22 -62 26 -100 4 -38 11 -79 16 -90 5 -12 18 -77 28 -146 11 -69 22 -136 26
-150 4 -14 13 -77 21 -140 7 -63 18 -131 24 -150 5 -19 15 -80 20 -135 5 -55
14 -125 20 -155 5 -30 15 -84 21 -120 7 -41 12 -255 13 -580 1 -385 4 -520 13
-536 7 -12 17 -55 23 -95 6 -41 20 -93 31 -116 10 -24 19 -50 19 -59 0 -8 23
-62 50 -119 28 -57 50 -108 50 -113 0 -6 8 -18 17 -28 11 -11 20 -43 25 -90 4
-41 12 -109 18 -151 31 -255 39 -858 12 -909 -25 -47 -59 -279 -55 -384 2 -90
-22 -273 -38 -278 -5 -2 -9 -10 -9 -18 0 -8 -4 -14 -10 -14 -5 0 -10 -9 -10
-19 0 -11 -4 -22 -10 -26 -14 -9 -115 -164 -148 -230 -46 -91 -82 -171 -82
-184 0 -6 -9 -28 -20 -48 -11 -21 -20 -44 -20 -52 0 -8 -9 -33 -19 -55 -115
-245 -124 -312 -49 -353 30 -16 71 -18 498 -18 463 0 465 0 507 23 23 12 47
30 52 40 11 21 31 235 31 334 0 94 -19 173 -54 223 -15 22 -42 62 -61 89 -73
106 -70 227 10 366 25 42 45 81 45 86 0 5 10 27 22 49 17 32 22 62 26 151 4
112 -10 267 -27 288 -5 6 -14 40 -20 76 -7 36 -18 92 -26 125 -8 33 -22 118
-30 189 -9 71 -18 133 -21 137 -10 17 -34 300 -34 403 0 117 21 290 38 322 43
81 53 241 32 515 -11 151 -12 1621 -1 2124 6 302 8 322 29 360 45 83 16 79
567 92 270 6 522 16 560 22 39 5 120 13 180 16 61 4 155 15 210 25 55 10 120
22 145 25 25 4 74 15 110 25 36 10 88 21 115 25 28 4 57 11 66 16 36 19 302
82 376 89 1 0 27 21 58 46 31 25 63 44 72 42 18 -3 20 -6 63 -103 17 -38 36
-77 41 -85 5 -8 14 -26 20 -40 5 -14 21 -46 34 -72 14 -26 25 -54 25 -61 0 -8
8 -25 19 -38 10 -13 22 -40 26 -59 4 -19 11 -40 16 -46 14 -18 79 -184 79
-202 0 -10 6 -27 14 -38 8 -11 19 -40 26 -64 7 -25 21 -62 31 -82 10 -20 19
-45 19 -55 0 -10 8 -34 19 -53 10 -19 23 -52 30 -72 7 -20 19 -42 27 -48 7 -7
14 -19 14 -27 0 -18 59 -141 71 -149 5 -3 16 -21 24 -39 7 -19 19 -40 24 -47
26 -31 102 -145 111 -167 6 -13 22 -37 35 -53 14 -16 25 -38 25 -48 0 -9 6
-23 13 -29 8 -6 19 -30 26 -53 7 -24 19 -50 25 -58 7 -8 18 -35 25 -60 7 -25
19 -54 27 -65 8 -11 14 -28 14 -38 0 -11 9 -36 20 -56 21 -39 52 -125 76 -211
9 -30 20 -60 25 -66 5 -7 16 -36 23 -65 8 -30 22 -67 30 -84 9 -16 16 -37 16
-45 0 -8 11 -48 24 -90 41 -128 57 -183 71 -240 7 -30 18 -73 24 -95 19 -67
24 -323 12 -640 -6 -165 -13 -318 -16 -340 -9 -80 -25 -322 -25 -405 -1 -47
-8 -116 -16 -155 -8 -38 -20 -96 -25 -128 -10 -56 -49 -147 -92 -217 -12 -20
-31 -51 -42 -69 -11 -19 -39 -58 -62 -87 -24 -30 -43 -56 -43 -59 0 -3 -9 -15
-19 -27 -116 -139 -211 -259 -211 -267 0 -6 -4 -11 -9 -11 -9 0 -81 -104 -81
-118 0 -4 -11 -23 -25 -42 -14 -19 -25 -40 -25 -48 0 -9 -11 -30 -25 -48 -14
-18 -25 -38 -25 -45 0 -6 -9 -26 -19 -43 -26 -42 -43 -110 -36 -139 12 -47 56
-52 445 -52 362 0 432 6 467 40 8 8 22 20 31 27 9 7 28 29 42 48 23 33 25 43
25 151 0 82 -4 121 -13 132 -18 21 -42 112 -42 158 0 47 49 141 92 177 18 15
39 34 48 42 13 13 67 51 121 85 110 69 143 92 155 103 20 19 19 495 -1 607
-27 153 -18 281 33 430 14 41 17 89 17 270 0 289 21 694 40 770 13 55 34 212
55 420 5 44 9 198 9 342 l1 261 -45 99 c-24 54 -61 130 -81 168 -100 190 -221
441 -249 514 -7 20 -25 68 -40 106 -71 187 -112 363 -122 523 -8 128 24 321
75 462 21 58 101 200 112 200 15 0 40 -30 46 -55 3 -14 37 -86 75 -161 38 -74
69 -141 69 -148 0 -6 8 -23 17 -36 21 -30 100 -217 118 -280 8 -25 23 -63 34
-85 12 -21 21 -49 21 -60 0 -11 7 -31 16 -44 9 -12 22 -44 30 -69 15 -55 40
-134 55 -177 39 -109 116 -391 131 -475 5 -30 13 -59 18 -65 5 -6 16 -60 24
-120 9 -61 21 -147 28 -192 12 -83 8 -125 -22 -258 -12 -54 -14 -260 -3 -303
3 -15 15 -40 25 -57 10 -16 18 -39 18 -50 0 -11 6 -30 14 -41 8 -11 22 -49 31
-83 9 -35 22 -73 29 -85 8 -11 17 -41 20 -66 4 -25 13 -55 21 -67 8 -12 19
-51 25 -88 6 -36 15 -74 20 -83 6 -9 17 -53 25 -97 8 -44 21 -105 30 -135 8
-30 15 -75 15 -100 0 -25 8 -90 16 -145 43 -269 45 -1068 4 -1120 -15 -19 -23
-130 -24 -325 -1 -162 -4 -199 -17 -220 -9 -14 -20 -44 -23 -68 -4 -24 -11
-51 -16 -60 -11 -18 -54 -139 -75 -212 -16 -53 -52 -163 -67 -205 -6 -16 -16
-55 -23 -86 -7 -30 -20 -72 -29 -91 -10 -20 -16 -51 -14 -70 3 -31 7 -34 73
-58 67 -23 81 -25 300 -25 261 0 456 22 501 57 24 19 24 22 24 180 0 153 -1
164 -26 217 -15 31 -44 76 -66 102 -46 55 -78 140 -78 210 0 50 40 184 67 224
7 11 13 27 13 36 0 9 9 45 20 79 38 118 21 303 -43 490 -77 219 -97 341 -97
582 0 103 4 220 10 260 5 40 14 156 19 258 10 189 32 319 71 405 9 22 21 55
25 74 4 18 16 54 27 79 19 42 22 44 34 27 8 -10 14 -22 14 -27 0 -19 58 -7 80
17 26 28 62 32 100 10 43 -24 81 -18 123 20 20 18 37 39 37 44 0 25 19 8 25
-22 9 -42 20 -54 69 -79 44 -22 177 -36 239 -24 20 4 49 20 66 35 28 27 31 35
31 93 0 39 -8 86 -21 124 -21 61 -22 62 -3 88 10 14 27 28 37 31 9 4 17 10 17
15 0 5 10 18 21 29 23 21 23 13 0 276 -9 106 -13 816 -4 765 3 -14 9 -29 13
-34 5 -5 6 -21 3 -36 -3 -15 0 -31 6 -34 5 -4 8 -13 5 -21 -7 -18 13 -55 29
-52 7 1 15 11 18 22 17 57 5 1008 -16 1326 l-6 85 35 -4 c44 -5 43 -7 50 193
3 83 10 166 16 185 20 67 43 245 42 331 -1 83 -22 217 -42 269 -6 14 -17 59
-25 100 -8 41 -21 104 -30 140 -43 177 -68 269 -82 310 -8 25 -21 72 -27 105
-7 33 -16 66 -20 73 -4 7 -16 45 -26 85 -10 40 -23 86 -29 102 -21 60 -43 131
-56 185 -8 30 -24 73 -35 95 -11 21 -20 51 -20 65 0 14 -6 34 -13 45 -7 11
-30 67 -51 125 -21 58 -46 123 -56 145 -10 22 -30 69 -45 105 -15 36 -33 79
-40 95 -36 87 -188 396 -220 450 -13 22 -30 51 -37 65 -63 123 -279 369 -393
450 -27 19 -57 42 -67 52 -10 10 -24 18 -32 18 -7 0 -19 7 -26 15 -6 8 -42 28
-78 45 -37 18 -90 43 -117 56 -28 13 -57 24 -65 24 -8 0 -37 9 -65 19 -27 11
-72 24 -100 29 -77 16 -221 70 -275 103 -8 5 -26 15 -40 22 -14 7 -51 28 -83
47 -105 64 -132 79 -169 99 -20 12 -39 25 -42 30 -4 5 -20 12 -36 16 -16 4
-33 12 -37 19 -12 18 -320 166 -347 166 -7 0 -42 10 -77 21 -149 50 -616 73
-874 43 -140 -16 -230 -29 -265 -38 -14 -4 -56 -13 -95 -21 -38 -7 -90 -20
-115 -28 -25 -8 -74 -22 -110 -31 -158 -40 -185 -48 -195 -55 -5 -5 -38 -16
-73 -24 -34 -9 -77 -23 -94 -31 -17 -9 -38 -16 -46 -16 -14 0 -94 -24 -239
-71 -34 -11 -90 -21 -124 -22 -53 -2 -62 1 -69 18 -5 14 15 94 60 247 37 125
70 231 74 236 28 45 106 417 106 504 0 5 17 27 38 51 21 23 49 60 61 83 19 35
27 40 50 36 38 -5 83 36 141 128 98 154 168 224 220 218 19 -2 34 -18 59 -60
41 -71 61 -74 98 -15 l28 42 9 -52 c10 -60 22 -65 82 -37 71 34 134 127 188
279 6 16 15 1 40 -65 28 -73 37 -85 58 -88 22 -3 35 10 91 87 65 88 101 127
78 83 -6 -11 -11 -34 -11 -51 0 -26 4 -31 24 -31 42 0 197 174 269 301 l26 46
122 10 c116 9 123 11 147 38 23 28 24 34 21 144 l-4 115 95 27 c80 23 100 33
131 66 33 36 37 45 43 120 7 77 8 81 34 88 33 8 70 41 85 75 29 65 23 -256 -8
-456 -9 -56 -38 -192 -65 -304 -56 -227 -62 -280 -29 -280 15 0 26 14 44 58
14 31 43 91 64 132 88 168 211 441 240 532 45 142 61 250 62 422 1 136 2 148
14 121 8 -16 24 -72 36 -123 45 -190 11 -359 -126 -631 -75 -147 -94 -221 -57
-221 12 0 52 33 104 89 94 100 148 192 200 341 l33 95 0 230 0 230 -33 95
c-72 206 -203 398 -367 537 -135 114 -235 155 -520 213 -187 38 -366 42 -491
10 -164 -41 -369 -165 -508 -306 -68 -68 -144 -152 -181 -199 -22 -27 -60 -75
-86 -105 -25 -30 -72 -93 -104 -140 -137 -199 -191 -240 -322 -240 -128 0
-344 53 -456 113 -60 31 -100 74 -134 142 -29 57 -76 268 -128 580 -51 302
-62 350 -106 464 -40 104 -91 182 -171 258 -51 48 -90 73 -189 120 -160 77
-165 82 -102 125 26 18 69 54 96 80 47 48 47 48 47 117 0 43 -5 72 -12 79 -7
5 -37 13 -67 17 -53 7 -54 8 -74 57 -16 37 -26 48 -41 46 -22 -4 -29 -14 -57
-92 -19 -53 -23 -57 -34 -42 -7 9 -21 50 -30 89 -10 40 -22 80 -27 90 -13 25
-45 22 -51 -5z m280 -192 c55 -11 58 -13 61 -44 4 -44 -27 -85 -101 -133 -71
-46 -86 -64 -87 -105 0 -46 31 -71 168 -136 186 -88 273 -180 341 -359 44
-114 55 -162 106 -464 52 -312 99 -523 127 -580 55 -109 130 -166 288 -215
136 -43 237 -60 353 -60 165 0 216 36 364 249 36 53 87 120 112 150 25 30 56
68 69 85 31 41 160 184 197 218 123 111 199 165 300 215 211 102 348 116 621
63 165 -33 302 -74 381 -114 77 -38 211 -158 290 -259 85 -108 149 -226 195
-357 l33 -95 0 -200 0 -200 -33 -95 c-37 -105 -106 -241 -135 -268 -19 -17
-19 -16 -5 13 101 199 130 298 135 465 4 121 2 145 -21 233 -14 54 -36 117
-48 140 -21 38 -27 42 -63 42 l-40 0 3 -171 c6 -277 -28 -417 -176 -731 -47
-100 -87 -181 -88 -180 -1 1 4 29 12 62 42 176 56 293 61 510 6 254 1 289 -43
293 -28 3 -32 -2 -60 -59 -30 -65 -35 -69 -96 -93 l-38 -15 0 -81 c0 -79 -1
-83 -32 -114 -25 -25 -53 -38 -118 -55 -133 -36 -124 -24 -116 -160 9 -155 13
-151 -140 -163 -77 -7 -125 -15 -135 -24 -9 -8 -29 -38 -44 -67 -26 -49 -130
-187 -141 -187 -2 0 -9 11 -14 25 -8 20 -16 25 -43 25 -38 0 -49 -10 -125
-113 -28 -37 -54 -67 -59 -66 -4 1 -21 36 -38 78 -29 74 -31 76 -67 79 l-36 3
-17 -58 c-27 -93 -81 -198 -122 -233 l-37 -33 -16 49 c-13 43 -19 49 -45 52
-23 3 -35 -3 -55 -28 l-26 -31 -32 40 c-31 39 -36 41 -85 41 -76 0 -149 -53
-208 -151 -13 -22 -47 -72 -74 -112 -48 -68 -53 -72 -94 -75 -39 -3 -45 -7
-69 -49 -15 -25 -46 -67 -68 -93 -43 -50 -47 -63 -59 -190 -7 -67 -60 -284
-94 -380 -63 -177 -131 -432 -131 -488 0 -58 2 -62 44 -106 24 -25 47 -54 51
-66 5 -14 15 -20 37 -20 31 0 31 0 26 48 l-5 49 61 15 c101 26 149 40 196 55
25 8 59 18 75 22 58 16 200 60 245 75 122 41 286 86 450 122 143 32 189 38
370 54 238 21 680 -3 750 -40 19 -11 55 -23 80 -29 64 -14 164 -51 168 -62 2
-5 9 -9 16 -9 15 0 143 -66 166 -85 8 -7 26 -16 39 -20 14 -4 45 -22 70 -40
25 -17 82 -51 126 -74 44 -23 85 -49 91 -57 6 -8 14 -14 18 -14 8 0 110 -45
141 -62 53 -30 71 -38 88 -38 10 0 28 -6 40 -14 12 -8 54 -20 92 -27 39 -6 77
-17 85 -24 8 -7 35 -16 60 -20 25 -4 59 -16 76 -26 17 -10 39 -19 48 -19 9 0
25 -9 35 -19 10 -10 30 -22 43 -26 25 -8 110 -55 118 -65 3 -4 28 -23 57 -42
88 -60 302 -287 303 -320 0 -5 7 -16 15 -25 38 -43 65 -83 100 -148 62 -112
164 -319 165 -331 0 -6 6 -17 14 -23 8 -7 17 -24 21 -39 3 -15 15 -45 25 -67
11 -22 33 -74 50 -115 17 -41 37 -88 45 -105 8 -16 17 -43 21 -60 4 -16 10
-35 15 -40 12 -16 59 -144 74 -201 7 -28 19 -62 28 -75 8 -13 20 -49 26 -79 7
-30 18 -64 25 -75 7 -11 16 -42 20 -70 4 -27 13 -59 21 -70 7 -12 18 -47 25
-80 7 -32 18 -73 25 -90 14 -30 37 -119 57 -210 6 -27 21 -86 33 -130 39 -139
56 -208 72 -290 8 -44 19 -85 24 -91 5 -6 16 -64 25 -129 15 -103 16 -131 4
-224 -7 -58 -19 -127 -26 -152 -13 -42 -33 -237 -34 -316 0 -30 -3 -33 -29
-33 -16 0 -33 -6 -38 -12 -16 -21 5 -713 23 -773 5 -16 8 -130 6 -252 l-3
-223 -34 0 c-24 0 -38 -6 -45 -19 -6 -13 -10 -174 -10 -454 0 -359 3 -448 16
-512 15 -73 15 -78 -3 -95 -87 -87 -103 -109 -103 -143 0 -19 9 -54 20 -78 11
-26 20 -66 20 -96 0 -71 -18 -83 -127 -83 -45 0 -85 5 -88 10 -4 6 -20 16 -37
23 -24 10 -34 23 -42 52 -11 39 -12 40 -63 43 -44 3 -52 0 -58 -17 -3 -11 -19
-30 -35 -41 -27 -19 -31 -20 -59 -5 -45 23 -126 20 -149 -6 -17 -17 -20 -18
-25 -5 -8 20 -107 23 -107 4 0 -7 -7 -26 -16 -43 -25 -47 -64 -163 -79 -238
-8 -37 -19 -76 -25 -87 -11 -20 -22 -142 -40 -445 -22 -356 -1 -758 44 -844
38 -73 106 -337 106 -413 0 -53 -42 -214 -70 -265 -11 -21 -20 -45 -20 -54 0
-9 -7 -30 -15 -45 -10 -21 -15 -61 -15 -136 0 -95 3 -112 26 -160 15 -29 43
-73 63 -98 20 -25 47 -68 60 -96 21 -47 23 -62 20 -172 -2 -67 -8 -125 -14
-130 -5 -6 -68 -20 -140 -32 -100 -17 -172 -23 -310 -23 -163 -1 -186 1 -245
22 -36 13 -66 24 -68 26 -6 5 31 140 44 160 7 11 17 46 23 78 6 32 14 63 18
70 3 6 15 38 24 71 10 34 32 99 49 146 18 47 40 113 50 146 10 34 23 70 28 80
6 11 12 127 14 259 4 212 7 245 24 280 18 38 19 66 19 545 0 377 -3 520 -13
565 -7 33 -19 122 -27 198 -8 75 -19 145 -24 155 -5 9 -14 51 -21 92 -7 41
-18 89 -25 105 -8 17 -17 53 -21 80 -3 28 -15 68 -25 90 -10 22 -23 67 -29 99
-5 33 -16 69 -24 80 -7 12 -17 37 -21 56 -4 19 -16 51 -26 70 -11 19 -19 42
-19 50 0 8 -10 31 -22 50 -20 31 -22 48 -22 150 0 78 6 132 17 169 19 62 24
297 7 347 -5 16 -16 77 -25 137 -8 59 -19 115 -24 125 -5 9 -12 44 -16 77 -4
33 -15 78 -25 100 -10 22 -23 68 -29 102 -7 34 -18 75 -26 90 -8 15 -15 33
-15 40 0 14 -44 159 -69 228 -11 28 -26 70 -34 95 -8 25 -26 74 -40 110 -14
36 -36 94 -50 130 -34 90 -95 238 -111 269 -17 33 -113 231 -159 332 -25 52
-43 79 -62 87 -37 17 -72 15 -91 -5 -22 -26 -74 -106 -74 -117 0 -5 -6 -17
-14 -25 -21 -25 -65 -166 -84 -271 -32 -180 -14 -559 32 -648 7 -15 17 -43 21
-62 9 -43 61 -179 116 -305 35 -80 90 -201 106 -230 84 -160 199 -391 220
-443 l26 -65 -7 -271 c-4 -149 -11 -284 -16 -301 -5 -16 -14 -93 -20 -170 -11
-144 -17 -183 -31 -200 -11 -15 -32 -449 -35 -730 -2 -233 -3 -243 -33 -357
-27 -103 -31 -133 -31 -250 0 -73 7 -169 15 -213 14 -79 21 -456 9 -501 -3
-11 -17 -25 -32 -32 -33 -15 -200 -131 -274 -192 -30 -25 -63 -58 -73 -75 -27
-47 -55 -134 -55 -174 0 -43 30 -153 55 -201 14 -26 16 -46 10 -94 -12 -111
-58 -163 -160 -183 -66 -13 -441 -17 -622 -6 -99 5 -113 8 -113 24 0 15 73
170 131 279 30 57 86 133 214 291 130 161 179 227 227 304 17 28 38 61 48 75
70 103 116 299 125 530 3 91 14 228 23 305 12 110 16 242 16 610 1 415 -1 475
-16 515 -9 25 -19 72 -23 105 -4 33 -13 67 -21 76 -13 14 -29 64 -68 214 -7
28 -21 65 -30 82 -9 18 -16 40 -16 50 -1 10 -7 34 -14 53 -41 105 -69 180 -82
220 -8 25 -20 59 -28 75 -23 51 -57 138 -68 175 -5 19 -16 42 -23 50 -7 8 -16
31 -20 50 -4 19 -15 44 -25 55 -10 11 -21 31 -25 45 -4 14 -17 36 -27 50 -61
79 -248 389 -248 412 0 5 -20 51 -44 101 -25 51 -48 109 -51 130 -4 20 -11 40
-16 43 -5 2 -14 24 -20 47 -6 23 -19 59 -29 82 -10 22 -25 60 -33 85 -15 48
-48 129 -78 195 -10 22 -21 52 -24 68 -4 15 -11 27 -15 27 -5 0 -12 10 -16 23
-4 12 -26 63 -49 112 -24 50 -46 101 -50 115 -4 14 -15 36 -25 50 -9 14 -22
40 -30 58 -17 43 -45 62 -92 62 -29 0 -47 -9 -85 -41 -57 -50 -90 -65 -163
-74 -30 -3 -75 -13 -100 -21 -45 -14 -111 -31 -230 -60 -36 -8 -96 -24 -135
-34 -38 -11 -99 -22 -135 -26 -36 -3 -90 -12 -120 -19 -30 -8 -122 -19 -205
-25 -82 -7 -190 -16 -240 -20 -49 -5 -292 -14 -539 -20 l-449 -10 -46 -34
c-82 -60 -83 -70 -88 -516 -2 -212 -8 -646 -12 -965 -5 -429 -4 -666 6 -910
17 -404 14 -582 -11 -645 -33 -85 -57 -273 -53 -410 6 -163 24 -357 42 -445 8
-38 22 -124 31 -190 8 -66 19 -126 24 -135 5 -9 13 -50 19 -93 6 -43 18 -92
27 -108 11 -23 16 -65 17 -157 2 -114 0 -133 -23 -187 -13 -33 -29 -67 -36
-75 -33 -41 -72 -132 -84 -193 -20 -109 -10 -195 36 -283 21 -41 41 -74 44
-74 4 0 20 -19 36 -43 l29 -42 -2 -208 c-2 -239 -2 -239 -84 -256 -60 -13
-803 -14 -867 -2 -59 12 -68 22 -55 63 18 52 62 160 82 198 11 19 22 51 26 70
4 19 11 40 16 46 5 6 18 35 28 65 39 111 91 207 194 362 91 136 102 180 117
448 7 123 17 203 32 265 22 86 23 105 23 514 0 390 -2 438 -23 580 -22 151
-24 159 -86 285 -67 138 -110 258 -121 340 -3 28 -12 68 -20 90 -11 32 -15
151 -19 570 -4 477 -6 541 -24 640 -11 61 -24 144 -27 185 -4 41 -15 113 -25
160 -10 47 -21 121 -24 165 -4 44 -13 100 -21 125 -7 25 -18 89 -24 143 -6 53
-18 114 -25 135 -8 20 -17 64 -21 97 -3 33 -14 78 -24 100 -39 85 -63 140 -72
162 -13 35 -52 55 -101 51 -48 -3 -38 13 -87 -148 -43 -145 -60 -488 -71
-1475 -5 -445 -11 -819 -14 -830 -3 -11 -7 -393 -10 -850 -4 -921 -14 -1158
-50 -1210 -12 -16 -58 -70 -104 -120 -46 -49 -91 -103 -99 -120 -8 -16 -21
-37 -28 -45 -7 -8 -23 -43 -34 -77 -26 -78 -30 -256 -6 -287 8 -11 15 -27 15
-36 0 -8 9 -32 20 -53 24 -44 25 -78 6 -115 -8 -15 -19 -52 -24 -82 -6 -30
-18 -68 -26 -85 -9 -16 -16 -37 -16 -46 0 -21 -56 -73 -109 -99 -42 -21 -49
-21 -410 -18 -311 4 -374 7 -418 21 l-52 18 21 42 c12 23 25 44 29 47 3 3 14
21 24 40 9 19 23 42 30 50 7 8 16 26 20 40 4 14 14 33 22 42 8 9 22 30 31 46
10 17 27 49 40 71 12 23 26 41 31 41 5 0 12 12 16 27 6 25 14 38 73 112 12 16
22 34 22 39 0 6 6 17 13 24 31 32 216 256 253 307 59 80 103 164 110 214 4 23
13 54 20 69 8 14 20 71 29 125 8 54 19 113 24 132 6 18 15 99 21 180 6 80 15
164 21 186 5 22 12 243 15 490 6 433 6 452 -14 510 -11 33 -23 82 -27 108 -3
26 -12 62 -20 80 -7 18 -19 84 -25 147 -6 63 -15 138 -21 165 -5 28 -14 250
-19 495 -6 245 -15 468 -21 495 -6 28 -17 91 -25 140 -8 50 -21 109 -29 131
-9 23 -20 70 -26 104 -5 34 -16 72 -23 83 -7 12 -19 44 -25 71 -7 27 -19 58
-27 70 -7 11 -14 30 -14 41 0 11 -12 43 -25 70 -14 28 -25 57 -25 66 0 8 -4
19 -9 25 -14 14 -118 265 -126 303 -4 18 -15 48 -25 65 -10 17 -21 53 -25 81
-4 27 -13 65 -21 85 -8 19 -21 76 -29 125 -8 50 -19 110 -24 135 -5 25 -15
120 -21 210 -9 136 -16 176 -37 230 -32 81 -31 80 -130 183 -44 47 -93 102
-109 124 -16 21 -31 40 -34 43 -17 16 -85 125 -99 160 -6 14 -16 32 -21 40
-38 56 -136 299 -171 425 -11 39 -24 79 -29 90 -5 11 -14 43 -20 70 -13 62 2
253 25 323 20 58 41 162 61 307 8 61 23 135 32 165 13 45 17 118 20 416 4 342
3 364 -15 406 -11 24 -23 59 -26 78 -4 19 -23 76 -43 125 -19 50 -44 115 -54
145 -38 113 -58 166 -74 195 -9 17 -16 34 -16 39 0 9 -68 169 -115 271 -13 28
-27 64 -31 80 -4 17 -12 37 -19 45 -17 21 -125 243 -125 257 0 6 -7 16 -15 23
-8 7 -17 27 -21 46 -3 18 -13 39 -21 46 -8 6 -28 39 -45 72 -17 34 -38 72 -48
86 -10 14 -34 57 -54 96 -29 57 -44 76 -73 89 -40 19 -106 15 -152 -9 -62 -34
-175 -86 -185 -86 -7 0 -27 -11 -46 -25 -19 -14 -40 -25 -47 -25 -7 0 -79 -32
-160 -71 -82 -39 -166 -79 -188 -89 -22 -10 -88 -41 -146 -69 -58 -28 -113
-51 -121 -51 -8 0 -23 -8 -32 -19 -9 -10 -31 -21 -47 -25 -17 -3 -42 -15 -56
-26 -14 -11 -32 -20 -39 -20 -12 0 -61 -23 -196 -91 -20 -10 -51 -32 -69 -49
-19 -16 -37 -30 -41 -30 -11 0 -67 -88 -74 -118 -13 -52 -95 -181 -144 -225
-83 -76 -128 -92 -250 -91 -97 0 -110 2 -169 32 -83 41 -161 102 -219 171 -26
31 -54 61 -62 68 -14 10 -35 49 -90 168 -36 77 -55 176 -54 285 0 113 25 246
55 290 9 14 20 41 24 60 4 19 27 74 51 121 24 47 44 89 44 93 0 4 8 20 18 34
10 15 31 56 47 92 16 36 34 72 41 80 6 8 27 45 47 82 19 37 45 79 56 94 12 15
21 31 21 36 0 10 47 84 186 294 52 77 94 146 94 152 0 6 6 15 14 19 8 4 26 40
40 79 23 62 26 88 26 191 0 85 -4 131 -15 156 -19 47 -20 198 -1 235 7 15 16
45 20 67 4 22 18 63 31 90 13 28 33 73 44 100 12 28 26 57 31 65 5 8 30 53 56
100 26 47 72 122 103 168 31 46 72 109 91 140 19 32 43 68 53 82 25 35 22 103
-7 159 -45 86 -116 238 -116 248 0 6 -8 21 -19 34 -10 13 -22 40 -26 59 -4 19
-15 49 -25 66 -9 17 -20 52 -24 78 -4 26 -14 63 -22 82 -11 25 -14 66 -12 145
l3 110 228 -223 c322 -314 384 -372 413 -382 35 -14 135 6 215 42 65 30 66 30
82 88 9 33 21 136 27 229 10 152 18 229 36 318 l6 29 19 -21 c11 -12 23 -21
28 -21 15 0 81 -113 134 -230 136 -299 247 -519 274 -540 23 -18 41 -20 183
-20 163 0 264 -12 290 -35 8 -7 28 -17 43 -20 83 -21 196 -111 326 -260 38
-44 146 -138 197 -172 11 -7 35 -24 54 -37 19 -14 52 -34 73 -46 20 -11 37
-24 37 -29 0 -5 11 -12 24 -15 30 -7 126 -66 126 -76 0 -4 12 -11 27 -15 15
-3 40 -17 56 -31 16 -13 35 -24 43 -24 8 0 17 -7 20 -15 4 -8 12 -15 18 -15
10 0 91 -50 196 -120 15 -10 85 -55 210 -135 34 -22 78 -53 99 -69 20 -16 55
-37 78 -48 23 -10 45 -23 49 -29 3 -6 32 -27 63 -48 31 -20 63 -42 71 -48 74
-60 159 -131 180 -147 42 -36 303 -300 342 -346 35 -42 124 -155 193 -245 33
-42 165 -244 243 -370 56 -92 126 -172 167 -193 22 -11 65 -32 95 -47 30 -15
70 -41 88 -57 19 -16 51 -39 71 -53 21 -13 76 -59 122 -103 115 -109 228 -214
264 -245 17 -14 44 -38 60 -52 17 -15 42 -33 58 -41 15 -8 27 -19 27 -23 0 -5
13 -12 30 -16 16 -4 32 -10 35 -15 8 -13 105 -64 158 -84 52 -20 56 -26 27
-44 -13 -8 -20 -23 -20 -42 0 -40 25 -49 152 -57 l98 -6 0 31 c0 30 -2 32 -50
38 -28 4 -53 10 -55 14 -9 15 46 20 138 14 80 -6 99 -4 138 13 67 30 115 78
149 148 52 108 149 571 138 661 -3 28 -6 29 -77 41 -83 14 -118 36 -178 110
-139 174 -254 277 -395 353 -71 38 -204 149 -257 214 -51 62 -280 305 -438
463 -186 186 -252 268 -282 348 -18 48 -21 78 -21 224 0 167 0 170 34 268 46
131 93 232 180 388 145 259 246 442 246 447 0 3 16 32 35 64 39 65 47 120 18
132 -10 4 -49 16 -88 27 -120 35 -125 85 -19 195 52 55 64 73 64 100 l0 33
-95 -5 c-105 -6 -101 -11 -48 55 31 38 29 78 -3 108 -25 23 -26 28 -21 100 6
90 16 113 56 127 19 7 31 18 33 34 2 18 11 24 38 28 l35 5 0 75 0 76 35 -43
c30 -37 40 -42 70 -40 l35 2 9 63 8 64 26 -37 c23 -31 30 -36 61 -33 35 3 36
5 46 58 l11 54 23 -37 c19 -31 28 -37 57 -37 33 0 37 4 57 50 19 42 24 47 34
33 7 -8 38 -21 70 -27z"/>
<path d="M8162 11407 c-11 -13 -73 -218 -87 -287 -4 -19 -24 -94 -46 -167 -59
-201 -52 -273 26 -273 28 0 37 6 49 28 26 52 105 307 125 409 22 108 28 252
11 284 -12 22 -62 26 -78 6z m40 -118 c-5 -108 -127 -549 -153 -549 -17 0 -9
51 30 183 21 73 42 146 45 162 18 81 69 255 74 250 3 -3 5 -23 4 -46z"/>
<path d="M8180 10571 c-5 -11 -10 -31 -10 -45 0 -23 4 -26 35 -26 19 0 35 4
35 9 0 5 14 12 30 16 25 5 30 11 30 36 0 29 -1 29 -55 29 -43 0 -56 -4 -65
-19z"/>
</g>
</svg>
